<?xml version="1.0" encoding="utf-8"?>
<!-- Generator: Adobe Illustrator 25.2.3, SVG Export Plug-In . SVG Version: 6.00 Build 0)  -->
<svg xmlns="http://www.w3.org/2000/svg" version="1.1" width="64px" height="64px" style="shape-rendering:geometricPrecision; text-rendering:geometricPrecision; image-rendering:optimizeQuality; fill-rule:evenodd; clip-rule:evenodd" xmlns:xlink="http://www.w3.org/1999/xlink">

<g>
	<g>
		<g>
			<polygon fill="#C1DBF6" points="64,36.723 23.102,60.5 0,47.157 40.898,23.38 			"/>
		</g>
	</g>
	<g>
		<polygon fill="#FFFFFF" points="18.172,23.116 10.679,27.561 22.294,34.308 30.264,30.017 		"/>
	</g>
	<g>
		<polygon fill="#FFFFFF" points="18.172,19.006 43.921,3.77 56.567,10.735 30.264,25.83 		"/>
	</g>
	<g>
		<polygon fill="#FFFFFF" points="18.172,23.116 18.172,19.006 30.264,25.83 30.264,30.017 		"/>
	</g>
	<g>
		<polygon fill="#FBDBD0" points="55.288,11.195 55.768,11.459 30.496,25.963 30.496,26.863 30.263,26.996 30.03,26.865 
			18.404,20.303 18.173,20.173 18.404,20.035 18.951,19.711 19.415,19.438 43.92,4.936 		"/>
	</g>
	<g>
		<path fill="#FFFFFF" d="M30.264,44.388l-8.733,5.118c0,0-0.077-11.644,0.763-15.198l7.97-4.291V44.388z"/>
	</g>
	<g>
		<polygon fill="#FBDBD0" points="56.568,11.899 56.332,12.035 56.332,11.769 		"/>
	</g>
	<g>
		<path fill="#FFFFFF" d="M22.294,34.308c-0.149,0.585-0.268,1.492-0.366,2.579v0.005c-0.156,1.768-0.252,4.006-0.308,6.105
			c-0.095,3.442-0.089,6.51-0.089,6.51L9.129,42.651c0-2.556,0.103-4.797,0.256-6.713v-0.002c0.189-2.374,0.454-4.253,0.697-5.627
			c0.319-1.821,0.597-2.747,0.597-2.747L22.294,34.308z"/>
	</g>
	<g>
		<g>
			<path fill="#C1DBF6" d="M19.022,40.4c0.2,0.116,0.363,0.396,0.362,0.627l-0.007,2.544c-0.001,0.23-0.164,0.324-0.365,0.208
				L12.297,39.9c-0.2-0.116-0.362-0.397-0.361-0.627l0.007-2.544c0.001-0.23,0.163-0.323,0.364-0.207L19.022,40.4z"/>
		</g>
	</g>
	<path fill="#FBDBD0" d="M18.161,24.052l-6.842,4.059l-0.007-0.003l-0.003,0.008l-0.078,0.264c-0.003,0.013-0.042,0.14-0.104,0.384
		c-0.032,0.134-0.072,0.302-0.119,0.506c-0.079,0.358-0.172,0.822-0.274,1.395c-0.225,1.278-0.408,2.684-0.536,4.182l0.428,0.246
		c0.129-1.564,0.314-3.026,0.548-4.35c0.087-0.498,0.17-0.914,0.244-1.248c0.043-0.194,0.082-0.361,0.114-0.498l10.752,6.246
		l7.969-4.291L18.161,24.052z"/>
	<g>
		<polygon fill="#FBDBD0" points="12.575,43.703 12.575,41.807 19.259,45.799 19.259,47.398 		"/>
	</g>
	<g>
		<path fill="#374874" d="M56.56,10.46L43.92,3.5L18.17,18.73l-0.23,0.14v4.11l-7.26,4.31l-0.2,0.11l-0.08,0.27
			c-0.08,0.32-0.27,1.08-0.49,2.27l-0.06,0.32c-0.3,1.72-0.54,3.62-0.7,5.66c-0.17,2.12-0.26,4.39-0.26,6.73v0.14l2.75,1.51
			l0.02,0.02l9.64,5.32l0.22,0.13h0.01l0.23-0.13l8.62-5.05L56.8,29.53V10.59L56.56,10.46z M56.33,29.26L30.5,43.99V25.96
			l25.27-14.5l0.56-0.33V29.26z M43.92,4.04l12.17,6.7l-0.8,0.45L30.26,25.56l-4.61-2.61l-6.23-3.51L18.64,19L43.92,4.04z
			 M18.17,23.38l9.86,5.63l1.75,1l-7.48,4.03l-11.16-6.48L18.17,23.38z M18.32,47.47l-4.28-2.38l-1.93-1.06v-1.34l6.21,3.7V47.47z
			 M21.29,48.34v0.77l-0.22-0.13l-2.28-1.26v-1.59l-7.15-4.28v1.92l-2.28-1.26c0-2.15,0.08-4.22,0.23-6.19l11.77,6.8
			C21.31,45.22,21.29,47.17,21.29,48.34z M21.38,42.59L9.63,35.81c0.01-0.14,0.02-0.27,0.03-0.4c0.01-0.09,0.02-0.17,0.02-0.25
			c0.02-0.19,0.04-0.37,0.06-0.56c0-0.05,0.01-0.1,0.01-0.15c0.02-0.23,0.05-0.46,0.07-0.68c0.01-0.09,0.02-0.17,0.03-0.25
			c0.02-0.14,0.04-0.29,0.05-0.44c0.02-0.09,0.03-0.18,0.04-0.27c0.02-0.14,0.03-0.27,0.05-0.39c0.01-0.1,0.03-0.19,0.04-0.29
			c0.02-0.12,0.04-0.25,0.05-0.37c0.02-0.09,0.03-0.18,0.04-0.27c0.02-0.13,0.13-0.76,0.14-0.82l11.42,6.34
			C21.53,38.68,21.43,40.68,21.38,42.59z M21.73,36.51l-11.39-6.33c0.2-1.12,0.38-1.88,0.48-2.26l11.21,6.5
			c-0.09,0.36-0.16,0.83-0.23,1.42C21.77,36.05,21.75,36.27,21.73,36.51z M30.03,44.25l-8.27,4.85c0-0.25,0-0.6,0.01-1.03
			c0.01-1.14,0.03-2.86,0.07-4.7L21.85,43c0.04-1.48,0.09-2.79,0.16-3.95c0.04-0.79,0.09-1.51,0.15-2.14
			c0.02-0.27,0.05-0.51,0.07-0.74c0.01-0.07,0.02-0.15,0.03-0.23c0,0,0-0.01,0-0.02c0.07-0.57,0.15-1.06,0.24-1.46l2.26-1.22
			l5.27-2.84V44.25z M30.03,29.61l-2.37-1.35l-9.26-5.28V19.4l0.55,0.31l6.54,3.7l4.54,2.55V29.61z"/>
		<polygon fill="#FFFFFF" points="56.33,11.13 56.33,28.23 30.5,43.06 30.5,25.96 55.77,11.46 		"/>
		<path fill="#C1DBF6" d="M30.03,43.33v0.92l-8.27,4.85c0-0.25,0-0.6,0.01-1.03L30.03,43.33z"/>
		<polygon fill="#C1DBF6" points="56.33,28.23 56.33,29.26 30.5,43.99 30.5,43.06 		"/>
	</g>
	<g>
		<g>
			<g>
				<path fill="#FFFFFF" d="M29.174,49.178c-0.962,0-1.586-0.772-1.59-1.968c-0.005-1.625,1.142-3.612,2.555-4.428
					c0.422-0.243,0.83-0.367,1.214-0.367c0.962,0,1.586,0.772,1.59,1.968c0.005,1.625-1.142,3.612-2.555,4.428
					C29.967,49.055,29.559,49.178,29.174,49.178z"/>
			</g>
			<g>
				<g>
					<path fill="#FBDBD0" d="M30.253,42.988c1.353-0.78,2.454-0.153,2.459,1.4c0.004,1.555-1.089,3.448-2.443,4.23
						c-0.157,0.09-0.314,0.163-0.468,0.218c0.982-0.785,1.747-2.11,1.935-3.348c0.252-1.674-0.621-2.649-1.95-2.176
						C29.939,43.187,30.096,43.078,30.253,42.988z"/>
				</g>
			</g>
			<g>
				<path fill="#374874" d="M31.354,42.649c0.802,0,1.354,0.635,1.357,1.735c0.004,1.553-1.087,3.445-2.439,4.226
					c-0.394,0.228-0.767,0.336-1.098,0.336c-0.802,0-1.354-0.635-1.357-1.735c-0.004-1.553,1.087-3.445,2.439-4.226
					C30.651,42.757,31.024,42.649,31.354,42.649 M31.354,42.182L31.354,42.182c-0.426,0-0.874,0.134-1.331,0.398
					c-1.503,0.868-2.677,2.902-2.672,4.631c0.004,1.316,0.736,2.2,1.823,2.2c0.426,0,0.873-0.134,1.331-0.398
					c1.503-0.868,2.677-2.902,2.672-4.631C33.173,43.067,32.441,42.182,31.354,42.182L31.354,42.182z"/>
			</g>
		</g>
	</g>
	<g>
		<g>
			<g>
				<path fill="#FFFFFF" d="M44.772,39.666c-0.962,0-1.586-0.772-1.59-1.968c-0.005-1.625,1.142-3.612,2.555-4.428
					c0.422-0.244,0.83-0.367,1.214-0.367c0.962,0,1.586,0.772,1.59,1.968c0.005,1.625-1.142,3.612-2.555,4.428
					C45.565,39.543,45.157,39.666,44.772,39.666z"/>
			</g>
			<g>
				<g>
					<path fill="#FBDBD0" d="M45.851,33.476c1.353-0.78,2.454-0.153,2.459,1.4c0.004,1.555-1.089,3.448-2.443,4.23
						c-0.157,0.09-0.314,0.163-0.468,0.218c0.982-0.785,1.747-2.11,1.935-3.348c0.252-1.674-0.621-2.649-1.95-2.176
						C45.537,33.675,45.694,33.566,45.851,33.476z"/>
				</g>
			</g>
			<g>
				<path fill="#374874" d="M46.952,33.137c0.802,0,1.354,0.635,1.357,1.735c0.004,1.553-1.087,3.445-2.439,4.226
					c-0.394,0.228-0.767,0.336-1.098,0.336c-0.802,0-1.354-0.635-1.357-1.735c-0.004-1.553,1.087-3.445,2.439-4.226
					C46.249,33.245,46.622,33.137,46.952,33.137 M46.952,32.67L46.952,32.67c-0.426,0-0.874,0.134-1.331,0.398
					c-1.503,0.868-2.677,2.902-2.672,4.631c0.004,1.316,0.736,2.2,1.823,2.2c0.426,0,0.873-0.134,1.331-0.398
					c1.503-0.868,2.677-2.902,2.672-4.631C48.771,33.555,48.039,32.67,46.952,32.67L46.952,32.67z"/>
			</g>
		</g>
	</g>
	<g>
		<g>
			<g>
				<path fill="#FFFFFF" d="M50.405,36.518c-0.962,0-1.586-0.772-1.59-1.968c-0.005-1.625,1.142-3.612,2.555-4.428
					c0.422-0.243,0.83-0.367,1.214-0.367c0.962,0,1.586,0.772,1.59,1.968c0.005,1.625-1.142,3.612-2.555,4.428
					C51.198,36.395,50.789,36.518,50.405,36.518z"/>
			</g>
			<g>
				<g>
					<path fill="#FBDBD0" d="M51.484,30.328c1.353-0.78,2.454-0.153,2.459,1.4c0.004,1.555-1.089,3.448-2.443,4.23
						c-0.157,0.09-0.314,0.163-0.468,0.218c0.982-0.785,1.747-2.11,1.935-3.348c0.252-1.674-0.621-2.649-1.95-2.176
						C51.17,30.527,51.326,30.418,51.484,30.328z"/>
				</g>
			</g>
			<g>
				<path fill="#374874" d="M52.585,29.989c0.802,0,1.354,0.635,1.357,1.735c0.004,1.553-1.087,3.445-2.439,4.226
					c-0.394,0.228-0.767,0.336-1.098,0.336c-0.802,0-1.354-0.635-1.357-1.735c-0.004-1.553,1.087-3.445,2.439-4.226
					C51.881,30.097,52.254,29.989,52.585,29.989 M52.585,29.522L52.585,29.522c-0.426,0-0.874,0.134-1.331,0.398
					c-1.503,0.868-2.677,2.902-2.672,4.631c0.004,1.316,0.736,2.2,1.823,2.2c0.426,0,0.873-0.134,1.331-0.398
					c1.503-0.868,2.677-2.902,2.672-4.631C54.404,30.406,53.671,29.522,52.585,29.522L52.585,29.522z"/>
			</g>
		</g>
	</g>
	<g>
		
			<rect x="28.383" y="31.192" transform="matrix(0.8752 -0.4838 0.4838 0.8752 -9.7904 24.8933)" fill="#374874" width="29.937" height="0.459"/>
	</g>
	<g>
		<g>
			<polygon fill="#C1DBF6" points="5.311,29.08 5.368,46.795 4.367,47.301 4.309,29.585 			"/>
		</g>
	</g>
	<g>
		<g>
			<path fill="#C1DBF6" d="M6.202,21.541c0.915-0.529,1.666-0.1,1.669,0.952l0.015,5.403c0.003,1.052-0.743,2.345-1.658,2.873
				l-2.754,1.59c-0.915,0.529-1.665,0.1-1.668-0.952l-0.015-5.403c-0.003-1.052,0.742-2.344,1.657-2.873L6.202,21.541z"/>
		</g>
	</g>
</g>
</svg>
