<?xml version="1.0" encoding="UTF-8"?>
<!DOCTYPE svg PUBLIC "-//W3C//DTD SVG 1.1//EN" "http://www.w3.org/Graphics/SVG/1.1/DTD/svg11.dtd">
<svg xmlns="http://www.w3.org/2000/svg" version="1.1" width="64px" height="64px" style="shape-rendering:geometricPrecision; text-rendering:geometricPrecision; image-rendering:optimizeQuality; fill-rule:evenodd; clip-rule:evenodd" xmlns:xlink="http://www.w3.org/1999/xlink">
<g><path style="opacity:0.647" fill="#66708f" d="M 53.5,8.5 C 50.1829,7.17654 46.8496,5.8432 43.5,4.5C 41.484,5.17761 39.484,5.84428 37.5,6.5C 39.0894,4.69444 41.0894,3.36111 43.5,2.5C 47.2288,4.02302 50.5621,6.02302 53.5,8.5 Z"/></g>
<g><path style="opacity:1" fill="#f2d7cf" d="M 53.5,8.5 C 54.8333,9.5 54.8333,10.5 53.5,11.5C 46.3278,16.5894 38.6612,20.9227 30.5,24.5C 29.8333,24.5 29.1667,24.5 28.5,24.5C 25.0078,23.5903 22.0078,21.9236 19.5,19.5C 19.5569,18.391 19.8902,17.391 20.5,16.5C 22.674,16.2503 24.3406,15.2503 25.5,13.5C 27.674,13.2503 29.3406,12.2503 30.5,10.5C 30.8417,9.66175 31.5084,9.32842 32.5,9.5C 34.674,9.25027 36.3406,8.25027 37.5,6.5C 39.484,5.84428 41.484,5.17761 43.5,4.5C 46.8496,5.8432 50.1829,7.17654 53.5,8.5 Z"/></g>
<g><path style="opacity:0.576" fill="#657296" d="M 37.5,6.5 C 36.3406,8.25027 34.674,9.25027 32.5,9.5C 33.6594,7.74973 35.326,6.74973 37.5,6.5 Z"/></g>
<g><path style="opacity:0.447" fill="#515b78" d="M 30.5,10.5 C 29.3406,12.2503 27.674,13.2503 25.5,13.5C 26.6594,11.7497 28.326,10.7497 30.5,10.5 Z"/></g>
<g><path style="opacity:0.998" fill="#fefefe" d="M 53.5,11.5 C 54.7943,13.0478 55.4609,15.0478 55.5,17.5C 55.44,19.9212 55.1066,22.2545 54.5,24.5C 46.8387,27.9955 39.5054,31.9955 32.5,36.5C 30.5772,32.9707 29.9106,28.9707 30.5,24.5C 38.6612,20.9227 46.3278,16.5894 53.5,11.5 Z"/></g>
<g><path style="opacity:0.647" fill="#99a4bc" d="M 53.5,8.5 C 54.4959,8.41423 55.3292,8.74756 56,9.5C 56.7945,16.5803 56.6278,23.5803 55.5,30.5C 54.8676,32.7426 53.5342,34.4093 51.5,35.5C 52.1534,34.1932 52.8201,32.8599 53.5,31.5C 53.1445,30.4777 52.4778,29.811 51.5,29.5C 52.5676,28.5655 53.901,28.2322 55.5,28.5C 55.7678,26.901 55.4345,25.5676 54.5,24.5C 55.1066,22.2545 55.44,19.9212 55.5,17.5C 55.4609,15.0478 54.7943,13.0478 53.5,11.5C 54.8333,10.5 54.8333,9.5 53.5,8.5 Z"/></g>
<g><path style="opacity:0.447" fill="#5f7691" d="M 25.5,13.5 C 24.3406,15.2503 22.674,16.2503 20.5,16.5C 21.6594,14.7497 23.326,13.7497 25.5,13.5 Z"/></g>
<g><path style="opacity:0.961" fill="#848fa6" d="M 20.5,16.5 C 19.8902,17.391 19.5569,18.391 19.5,19.5C 18.3143,20.7054 18.3143,22.0387 19.5,23.5C 18.8333,23.5 18.1667,23.5 17.5,23.5C 17.7845,21.5853 17.4511,19.9187 16.5,18.5C 17.5137,17.3263 18.847,16.6596 20.5,16.5 Z"/></g>
<g><path style="opacity:1" fill="#faf4f3" d="M 19.5,19.5 C 22.0078,21.9236 25.0078,23.5903 28.5,24.5C 30.2296,27.7646 29.5629,28.7646 26.5,27.5C 24.3374,25.9172 22.0041,24.5839 19.5,23.5C 18.3143,22.0387 18.3143,20.7054 19.5,19.5 Z"/></g>
<g><path style="opacity:1" fill="#ead3ce" d="M 17.5,23.5 C 18.1667,23.5 18.8333,23.5 19.5,23.5C 22.0041,24.5839 24.3374,25.9172 26.5,27.5C 26.8039,28.1499 27.1373,28.8165 27.5,29.5C 26.2299,30.2876 25.2299,31.2876 24.5,32.5C 24.1583,33.3382 23.4916,33.6716 22.5,33.5C 21.609,32.8902 20.609,32.5569 19.5,32.5C 17.742,32.1231 16.0754,31.4565 14.5,30.5C 14.1667,31.1667 13.8333,31.8333 13.5,32.5C 12.2613,32.0576 11.2613,31.3909 10.5,30.5C 10.5774,29.2502 11.244,28.4169 12.5,28C 12.1667,27.6667 11.8333,27.3333 11.5,27C 13.3635,25.5693 15.3635,24.4026 17.5,23.5 Z"/></g>
<g><path style="opacity:1" fill="#e8eaef" d="M 54.5,24.5 C 55.4345,25.5676 55.7678,26.901 55.5,28.5C 53.901,28.2322 52.5676,28.5655 51.5,29.5C 48.4098,30.665 47.0764,32.9983 47.5,36.5C 44.7508,39.4668 43.2508,38.8001 43,34.5C 39.6182,37.0553 36.1182,39.3887 32.5,41.5C 31.5028,41.5299 30.8361,41.0299 30.5,40C 30.9783,38.6974 31.645,37.5307 32.5,36.5C 39.5054,31.9955 46.8387,27.9955 54.5,24.5 Z"/></g>
<g><path style="opacity:0.753" fill="#727d9b" d="M 16.5,18.5 C 17.4511,19.9187 17.7845,21.5853 17.5,23.5C 15.3635,24.4026 13.3635,25.5693 11.5,27C 11.8333,27.3333 12.1667,27.6667 12.5,28C 11.244,28.4169 10.5774,29.2502 10.5,30.5C 9.25844,32.3888 9.25844,34.3888 10.5,36.5C 9.53862,38.2646 9.20528,40.2646 9.5,42.5C 8.83333,42.1667 8.16667,41.8333 7.5,41.5C 8.20829,37.2153 8.70829,32.882 9,28.5C 10.5072,25.5736 12.8405,23.5736 16,22.5C 16.49,21.2068 16.6567,19.8734 16.5,18.5 Z"/></g>
<g><path style="opacity:1" fill="#f7f2f2" d="M 51.5,29.5 C 52.4778,29.811 53.1445,30.4777 53.5,31.5C 52.8201,32.8599 52.1534,34.1932 51.5,35.5C 50.2438,35.5386 49.2438,35.0386 48.5,34C 49.3862,32.3853 50.3862,30.8853 51.5,29.5 Z"/></g>
<g><path style="opacity:0.951" fill="#bfd8f3" d="M 7.5,41.5 C 8.16667,41.8333 8.83333,42.1667 9.5,42.5C 12.0078,44.9236 15.0078,46.5903 18.5,47.5C 19.8823,49.898 21.549,50.0647 23.5,48C 23.2716,47.6012 22.9382,47.4346 22.5,47.5C 24.1867,46.0824 26.02,44.7491 28,43.5C 28.4922,44.549 28.3256,45.549 27.5,46.5C 28.6254,48.7936 29.9588,48.7936 31.5,46.5C 32.1031,44.8103 33.1031,43.3103 34.5,42C 33.9056,41.5357 33.2389,41.369 32.5,41.5C 36.1182,39.3887 39.6182,37.0553 43,34.5C 43.2508,38.8001 44.7508,39.4668 47.5,36.5C 49.099,36.7678 50.4324,36.4345 51.5,35.5C 53.5342,34.4093 54.8676,32.7426 55.5,30.5C 58.1305,32.1526 60.7972,33.8193 63.5,35.5C 63.5,36.1667 63.5,36.8333 63.5,37.5C 49.7261,44.8892 36.0594,52.5559 22.5,60.5C 14.6439,56.4079 6.97719,52.0746 -0.5,47.5C -0.5,46.8333 -0.5,46.1667 -0.5,45.5C 1.01739,45.4894 2.18405,44.8228 3,43.5C 3.49863,39.8484 3.6653,36.1817 3.5,32.5C 2.5,32.5 1.5,32.5 0.5,32.5C 0.184244,29.0217 0.684244,25.6883 2,22.5C 3.5843,21.1387 5.41764,20.472 7.5,20.5C 7.62833,26.0232 6.96166,31.3566 5.5,36.5C 5.66667,38.5 5.83333,40.5 6,42.5C 6.38258,41.944 6.88258,41.6107 7.5,41.5 Z"/></g>
<g><path style="opacity:1" fill="#f8f8f9" d="M 10.5,30.5 C 11.2613,31.3909 12.2613,32.0576 13.5,32.5C 13.8333,31.8333 14.1667,31.1667 14.5,30.5C 16.0754,31.4565 17.742,32.1231 19.5,32.5C 19.6107,33.1174 19.944,33.6174 20.5,34C 15.3932,33.1648 15.2265,33.9982 20,36.5C 20.6667,38.1667 20.6667,39.8333 20,41.5C 17.1745,39.1707 14.0078,37.5041 10.5,36.5C 9.25844,34.3888 9.25844,32.3888 10.5,30.5 Z"/></g>
<g><path style="opacity:1" fill="#fcfbfb" d="M 31.5,46.5 C 29.9588,48.7936 28.6254,48.7936 27.5,46.5C 28.3256,45.549 28.4922,44.549 28,43.5C 26.02,44.7491 24.1867,46.0824 22.5,47.5C 21.256,42.9648 21.256,38.2981 22.5,33.5C 23.4916,33.6716 24.1583,33.3382 24.5,32.5C 26.1703,32.2488 27.6703,31.5822 29,30.5C 29.2985,35.9555 30.1319,41.2889 31.5,46.5 Z"/></g>
<g><path style="opacity:1" fill="#9eaac3" d="M 51.5,29.5 C 50.3862,30.8853 49.3862,32.3853 48.5,34C 49.2438,35.0386 50.2438,35.5386 51.5,35.5C 50.4324,36.4345 49.099,36.7678 47.5,36.5C 47.0764,32.9983 48.4098,30.665 51.5,29.5 Z"/></g>
<g><path style="opacity:1" fill="#b5b9c9" d="M 28.5,24.5 C 29.1667,24.5 29.8333,24.5 30.5,24.5C 29.9106,28.9707 30.5772,32.9707 32.5,36.5C 31.645,37.5307 30.9783,38.6974 30.5,40C 30.8361,41.0299 31.5028,41.5299 32.5,41.5C 33.2389,41.369 33.9056,41.5357 34.5,42C 33.1031,43.3103 32.1031,44.8103 31.5,46.5C 30.1319,41.2889 29.2985,35.9555 29,30.5C 27.6703,31.5822 26.1703,32.2488 24.5,32.5C 25.2299,31.2876 26.2299,30.2876 27.5,29.5C 27.1373,28.8165 26.8039,28.1499 26.5,27.5C 29.5629,28.7646 30.2296,27.7646 28.5,24.5 Z"/></g>
<g><path style="opacity:1" fill="#faf9fa" d="M 10.5,36.5 C 12.5148,40.5144 15.8481,42.5144 20.5,42.5C 20.9227,44.7812 20.256,46.4479 18.5,47.5C 17.2864,44.3659 14.9531,42.3659 11.5,41.5C 10.8165,41.8627 10.1499,42.1961 9.5,42.5C 9.20528,40.2646 9.53862,38.2646 10.5,36.5 Z"/></g>
<g><path style="opacity:1" fill="#a4b0c8" d="M 19.5,32.5 C 20.609,32.5569 21.609,32.8902 22.5,33.5C 21.256,38.2981 21.256,42.9648 22.5,47.5C 22.9382,47.4346 23.2716,47.6012 23.5,48C 21.549,50.0647 19.8823,49.898 18.5,47.5C 20.256,46.4479 20.9227,44.7812 20.5,42.5C 15.8481,42.5144 12.5148,40.5144 10.5,36.5C 14.0078,37.5041 17.1745,39.1707 20,41.5C 20.6667,39.8333 20.6667,38.1667 20,36.5C 15.2265,33.9982 15.3932,33.1648 20.5,34C 19.944,33.6174 19.6107,33.1174 19.5,32.5 Z"/></g>
<g><path style="opacity:1" fill="#aba9ba" d="M 18.5,47.5 C 15.0078,46.5903 12.0078,44.9236 9.5,42.5C 10.1499,42.1961 10.8165,41.8627 11.5,41.5C 14.9531,42.3659 17.2864,44.3659 18.5,47.5 Z"/></g>
</svg>
